<?xml version="1.0" encoding="utf-8"?>
<!-- Generator: Adobe Illustrator 24.1.1, SVG Export Plug-In . SVG Version: 6.00 Build 0)  -->
<svg version="1.1" id="Capa_1" xmlns="http://www.w3.org/2000/svg" xmlns:xlink="http://www.w3.org/1999/xlink" x="0px" y="0px"
	 viewBox="0 0 2500 1406" style="enable-background:new 0 0 2500 1406;" xml:space="preserve">
<style type="text/css">
	.st0{fill:url(#SVGID_1_);}
	.st1{fill:#FFFFFF;}
</style>
<radialGradient id="SVGID_1_" cx="1613.3875" cy="762.0699" r="760.124" gradientTransform="matrix(1.3019 0 0 -1.3019 -301.6297 1693.6648)" gradientUnits="userSpaceOnUse">
	<stop  offset="7.000001e-03" style="stop-color:#FFFFFF"/>
	<stop  offset="3.000000e-02" style="stop-color:#CBFFFF"/>
	<stop  offset="5.700000e-02" style="stop-color:#96FFFF"/>
	<stop  offset="8.400000e-02" style="stop-color:#68FFFF"/>
	<stop  offset="0.111" style="stop-color:#43FFFF"/>
	<stop  offset="0.138" style="stop-color:#25FFFF"/>
	<stop  offset="0.165" style="stop-color:#11FFFF"/>
	<stop  offset="0.191" style="stop-color:#04FFFF"/>
	<stop  offset="0.216" style="stop-color:#00FFFF"/>
	<stop  offset="1" style="stop-color:#0000FF;stop-opacity:0"/>
</radialGradient>
<path class="st0" d="M1815.4,693.8c-42.3-104-113.8-192.7-206.7-256.5c-95.2-65.2-206.7-99.7-322.6-99.7
	c-191.6,0-369.5,95.2-475.6,254.6c-1.2,1.7-1.4,3.9-0.8,5.9c0.7,2.1,2.2,3.5,4.2,4.2l14.8,5.1c0.9,0.3,1.8,0.4,2.6,0.4
	c2.7,0,5.3-1.4,6.9-3.6c48.7-71.6,114.6-131.1,190.6-172.2c78.5-42.4,167.4-65,257.1-65c108.4,0,213,32,302.6,92.4
	c87.4,59,155.2,141.4,196.2,238.1c1.2,2.9,4,4.8,7.2,4.8h17.7c2.1,0,4-1,5.1-2.7C1815.9,697.8,1816.2,695.7,1815.4,693.8z
	 M831.3,603.3c-0.4,0-0.8-0.1-1.2-0.3C830.5,603.1,830.9,603.3,831.3,603.3h0.3H831.3z M1788.2,699.9c0.4,0.3,0.8,0.5,1.2,0.7
	C1789,700.3,1788.6,700.1,1788.2,699.9z"/>
<g>
	<path class="st1" d="M1529.6,813.3c-18.7,4.3-68.1,6.8-68.1,6.8l-6.2,19.5c0,0,24.6-2.1,42.6-0.3c0,0,5.9-0.7,6.5,6.6
		c0.3,6.8-0.5,14.1-0.5,14.1s-0.4,4.4-6.6,5.5c-6.8,1.2-53.1,2.9-53.1,2.9l-7.6,25.4c0,0-2.7,5.9,3.5,4.2
		c5.9-1.6,54.4-10.7,60.8-9.4c6.8,1.7,14.3,10.7,12.1,19c-2.6,10.2-51,41.1-80.6,38.9c0,0-15.5,1-28.6-19.9
		c-12.2-19.9,4.7-57.8,4.7-57.8s-7.7-17.7-2.1-23.6c0,0,3.4-3,13-3.8l11.8-24.6c0,0-13.5,0.9-21.6-9c-7.6-9.5-8.1-13.8-2.3-16.4
		c6.1-3,62.5-13.3,101.3-12c0,0,13.5-1.3,25.1,22.1C1533.5,801.6,1539.3,811.1,1529.6,813.3L1529.6,813.3z M1383.7,907.8
		c-4.9,11.7-18.1,24.2-34.4,16.4c-16.1-7.8-41.8-60.3-41.8-60.3s-9.8-19.5-11.6-19.1c0,0-2.1-3.8-3.4,17.6
		c-1.3,21.4,0.3,62.9-8.2,69.4c-8.1,6.5-17.8,3.9-22.9-3.8c-4.6-7.6-6.5-25.5-4-57c3-31.5,10.3-65.1,19.7-75.6
		c9.4-10.4,16.9-2.9,19.8-0.1c0,0,12.5,11.3,33.2,44.7l3.6,6.1c0,0,18.7,31.5,20.7,31.4c0,0,1.6,1.4,2.9,0.4
		c2-0.5,1.2-10.7,1.2-10.7s-3.9-34.2-21-92.3c0,0-2.6-7.3-0.8-14.1c1.7-6.9,8.6-3.6,8.6-3.6s26.6,13.3,39.3,56.5
		C1397.2,857.1,1388.6,896.1,1383.7,907.8L1383.7,907.8z M1253.3,796.7c-2.2,4.4-3.5,10.8-14.7,12.5c0,0-107.1,7.3-112.2,14.8
		c0,0-3.8,4.4,2.1,5.7c5.9,1.2,30.1,4.4,41.8,5.1c12.5,0.1,54.7,0.5,69.8,19.4c0,0,9,9,8.6,29.3c-0.4,20.8-4,28.1-12.1,35.7
		c-8.5,7-81.1,39.6-128-10.4c0,0-21.6-24.1,7.4-42.3c0,0,21-12.6,74.2,2.2c0,0,16.1,5.9,15.4,11.7c-0.9,6.2-13.3,12.9-31.2,12.5
		c-17.4-0.5-30.2-8.9-27.7-7.6c2.3,0.9-18.7-10.2-25.3-2.6c-6.5,6.9-4.9,11.2,1.4,15.5c16.3,9.2,79.2,6,97.9-14.8
		c0,0,7.4-8.5-3.9-15.4c-11.3-6.5-43.7-10.4-56.4-11.1c-12.1-0.7-57.2,0.1-63.7-11.8c0,0-6.5-8.1,0.7-31c7.6-24,60-33.2,82.7-35.3
		c0,0,62.4-2.2,73.8,10.5C1253.6,789.4,1255.2,792.4,1253.3,796.7L1253.3,796.7z M1076.2,937.2c-7.6,5.6-23.6,3.1-28.1-3.1
		c-4.6-5.6-6.1-27.9-5.2-62.7c0.9-35.3,1.7-79,9.2-85.9c8.1-7,13-0.9,16.1,3.9c3.4,4.7,7.4,9.9,8.3,21c0.8,11.1,3.4,69.1,3.4,69.1
		S1083.4,931.7,1076.2,937.2L1076.2,937.2z M1092.5,750c-22,7.3-37.1,4.8-49.9-0.7c-5.6,9.8-8.9,12.8-13.1,13.4
		c-6.2,0.7-11.8-9.4-12.9-12.6c-1-2.5-4-6.6-0.4-16.5c-12.5-11.2-13.4-26.3-11.3-36.5c3.1-11.7,24.2-56.2,88.4-61.4
		c0,0,31.4-2.3,36.7,14.5h0.9c0,0,30.5,0.1,29.8,27.2C1160.3,704.6,1126.8,738.4,1092.5,750L1092.5,750z M1032.6,689.7
		c-6.5,10.4-6.8,16.7-3.8,21c7.4-11.3,21-29.2,40.9-42.7C1054.3,669.3,1041.4,675.9,1032.6,689.7z M1121.2,672.3
		c-20.2,3-51.4,30.1-66.3,52.2c22.8,4.2,63,2.6,80.8-33.7C1135.7,690.8,1144.3,668.2,1121.2,672.3L1121.2,672.3z M1669.1,882
		c-12.1,21.1-46.1,65.1-91.4,54.8c-15,36.3-27.5,72.9-34.6,127.8c0,0-1.6,10.7-10.4,6.9c-8.7-3.1-23.3-17.7-26.2-37.9
		c-3.1-26.6,8.7-71.5,32.8-122.9c-7-11.5-11.8-27.9-7.7-51.2c0,0,6.1-43.2,49.5-82.3c0,0,5.2-4.6,8.2-3.1c3.4,1.4,1.8,15.5-0.9,22.3
		c-2.7,6.8-22.1,40.4-22.1,40.4s-12.1,22.7-8.7,40.5c22.8-35,74.6-105.7,106.8-83.4c10.8,7.7,15.8,24.5,15.8,42.6
		C1679.9,852.5,1676.1,869.4,1669.1,882L1669.1,882z M1659.7,826.5c0,0-1.8-13.9-15.4,1.4c-11.7,12.9-32.8,37.2-49.9,70.2
		c17.8-2,35-11.7,40.2-16.7C1643.2,873.9,1662.8,853.6,1659.7,826.5L1659.7,826.5z M1027.6,844.3c-2.5,31.5-14.6,84.5-100.4,110.7
		c-56.6,17.1-110.1,8.9-139.3,1.4c-0.7,11.6-2,16.5-3.8,18.5c-2.5,2.5-21,13.1-31.1-2c-4.6-7.2-6.9-20.2-8.2-31.8
		c-65.6-30.2-95.8-73.7-97-75.6c-1.4-1.4-16.4-17.1-1.4-36.2c14.1-17.3,60-34.6,101.4-41.7c1.4-35.4,5.6-62.1,10.5-74.3
		c6-14.2,13.5-1.4,20,8.2c5.5,7.2,8.7,38,9,62.6c27.1-1.3,43.1,0.7,73.3,6.1c39.3,7.2,65.6,27.2,63.3,50
		c-1.7,22.4-22.3,31.6-30.1,32.3c-8.2,0.7-21-5.2-21-5.2c-8.7-4.2-0.7-7.8,9.9-12.4c11.5-5.6,8.9-11.3,8.9-11.3
		c-4.3-12.5-55.3-21.2-106.1-21.2c-0.3,28,1.2,74.5,1.8,101.5c35.5,6.8,62.1,5.5,62.1,5.5s129.7-3.6,133.6-86.4
		c4-82.9-129.3-162.5-227.8-187.7c-98.4-25.8-154.1-7.8-159-5.3c-5.2,2.6-0.4,3.4-0.4,3.4s5.3,0.8,14.6,3.9c9.8,3.1,2.2,8.2,2.2,8.2
		c-16.8,5.3-35.7,2-39.3-5.7s2.5-14.6,9.5-24.5c7-10.4,14.7-10,14.7-10c121.7-42.2,270,34.1,270,34.1
		C1006.6,729.7,1030.2,812.2,1027.6,844.3L1027.6,844.3z M660.3,840c-13.8,6.8-4.3,16.5-4.3,16.5c25.9,27.9,57.8,45.3,88.1,56.1
		c3.5-48,3-65,3.4-89.2C700.1,826.7,672.8,834.2,660.3,840z M1926.8,830.1v17.2c0,3.8-3,6.8-6.8,6.8h-81.9c0,4.3,0.1,8.1,0.1,11.6
		c0,25.4-1,46.1-3.5,69.4c-0.4,3.5-3.3,6.1-6.6,6.1h-17.7c-1.8,0-3.5-0.8-4.7-2.1c-1.2-1.3-1.8-3.1-1.6-4.9
		c2.5-23.2,3.6-43.6,3.6-68.5c0-3.6,0-7.4-0.1-11.6h-81c-3.8,0-6.8-3-6.8-6.8v-17.2c0-3.8,3-6.8,6.8-6.8h79.8
		c-1.7-28-5.1-54.9-10.5-82.3c-0.3-1.7,0.1-3.4,1.2-4.7c1-1.3,2.6-2.1,4.3-2.1h19.1c3,0,5.5,2.1,6.1,5.1c5.3,28.3,8.7,55.7,10.4,84
		h82.9C1923.7,823.3,1926.8,826.4,1926.8,830.1L1926.8,830.1z"/>
</g>
</svg>
