<?xml version="1.0" encoding="utf-8"?>
<!-- Generator: Adobe Illustrator 24.1.1, SVG Export Plug-In . SVG Version: 6.00 Build 0)  -->
<svg version="1.1" id="layer" xmlns="http://www.w3.org/2000/svg" xmlns:xlink="http://www.w3.org/1999/xlink" x="0px" y="0px"
	 viewBox="0 0 652 652" style="enable-background:new 0 0 652 652;" xml:space="preserve">
<style type="text/css">
	.st0{fill:#0EB2F0;}
	.st1{fill:#AEAEAD;}
</style>
<path id="XMLID_25_" class="st0" d="M536.4,302.8c-1.8,1.8-3.3,3.8-4.5,6c-1.6,2.9-2.6,6.1-3,9.5c-0.5,4.5,0.2,9.1,2,13.3
	c1.3,3,3.2,5.7,5.5,8c4.9,4.9,11.6,7.6,18.4,7.6c7.2,0,13.6-2.9,18.3-7.6c2.3-2.3,4.1-5,5.5-8c1.8-4.2,2.5-8.8,2-13.3
	c-0.4-3.4-1.4-6.6-3-9.5c-1.2-2.2-2.7-4.2-4.5-6c-4.7-4.7-11.1-7.6-18.3-7.6C547.9,295.2,541.3,297.9,536.4,302.8"/>
<path id="XMLID_12_" d="M218.3,292.6c0-16.1-16.1-35.3-34.8-35.3h-60.4v130h56.2c22.9,0,39-19.5,39-36.6c5.1,10.6,23,37.2,59.6,37.2
	c36.2,0,65.8-30.1,65.8-66.7c0-37.2-29.5-66-65.8-66C241.4,255.1,222.8,281.7,218.3,292.6 M157,286.2h17.9c5.2,0,9.4,5.1,9.4,10.9
	c0,5.8-4.2,10.9-9.4,10.9H157V286.2z M245,321.1c0-18.2,14.8-33,33-33c18.3,0,33,14.8,33,33c0,18.4-14.8,33.2-33,33.2
	C259.7,354.2,245,339.5,245,321.1 M198.7,321.1c4.2-0.3,11-5.1,13.6-8c-1,3.5-1,14.5,0,18C209.4,326.9,202.9,321.8,198.7,321.1
	 M157,335h17.9c5.2,0,9.4,5.1,9.4,10.9c0,6.1-4.2,11.1-9.4,11.1H157V335z M80.7,257.2v48.5H57.8v-48.5H21.6v130h36.2v-50.4h22.9
	v50.4H116v-130H80.7L80.7,257.2z M251.9,321.1c0,14.5,11.6,26.1,26.1,26.1c14.1,0,25.9-11.6,25.9-26.1S292,295.2,278,295.2
	C263.5,295.2,251.9,306.6,251.9,321.1"/>
<path id="XMLID_2_" class="st1" d="M488.8,313.4h-70v25.8h37.6c-3,12.5-13.7,20.3-27.9,20.3c-22.2,0-36.9-15.8-36.9-39.3
	c0-20.3,14.8-35.5,34.6-35.5c12,0,22.1,5.9,27.7,16.5h36.3c-7.2-26-34.2-45-63.1-45c-38.4,0-67.8,28.5-67.8,65.3
	c0,37.1,29.5,66.3,67.1,66.3c31.3,0,56.5-19.3,64.8-47.2c8.3,27.3,33.7,47.2,63.8,47.2c36.8,0,66.6-29.8,66.6-66.6
	s-29.8-66.6-66.6-66.6C520.8,254.6,492.6,280.2,488.8,313.4 M522,321.2c0-18.2,14.7-32.9,32.9-32.9c18.2,0,32.9,14.7,32.9,32.9
	c0,18.2-14.7,32.9-32.9,32.9C536.8,354.1,522,339.4,522,321.2"/>
</svg>
