<svg xmlns="http://www.w3.org/2000/svg" viewBox="0 0 600 133.3"><defs><style>.cls-1{fill:#0eb2f0;}.cls-2{fill:#aeaead;}</style></defs><g id="Capa_2" data-name="Capa 2"><g id="layer"><path class="cls-1" d="M514.8,48.2a26.18,26.18,0,0,0-4.5,6,25.79,25.79,0,0,0-3,9.5,26.44,26.44,0,0,0,2,13.3,26.17,26.17,0,0,0,23.9,15.6A25.68,25.68,0,0,0,551.5,85a27.81,27.81,0,0,0,5.5-8,26.44,26.44,0,0,0,2-13.3,25.79,25.79,0,0,0-3-9.5,26.18,26.18,0,0,0-4.5-6,25.68,25.68,0,0,0-18.3-7.6,26,26,0,0,0-18.4,7.6"/><path d="M196.7,38c0-16.1-16.1-35.3-34.8-35.3H101.5v130h56.2c22.9,0,39-19.5,39-36.6,5.1,10.6,23,37.2,59.6,37.2,36.2,0,65.8-30.1,65.8-66.7A65.45,65.45,0,0,0,256.3.6C219.8.5,201.2,27.1,196.7,38m-61.3-6.4h17.9c5.2,0,9.4,5.1,9.4,10.9s-4.2,10.9-9.4,10.9H135.4Zm88,34.9a33,33,0,1,1,33,33.2,33,33,0,0,1-33-33.2m-46.3,0c4.2-.3,11-5.1,13.6-8-1,3.5-1,14.5,0,18-2.9-4.2-9.4-9.3-13.6-10M135.4,80.4h17.9c5.2,0,9.4,5.1,9.4,10.9,0,6.1-4.2,11.1-9.4,11.1H135.4ZM59.1,2.6V51.1H36.2V2.6H0v130H36.2V82.2H59.1v50.4H94.4V2.6ZM230.3,66.5a26,26,0,1,0,26.1-25.9,26,26,0,0,0-26.1,25.9"/><path class="cls-2" d="M467.2,58.8h-70V84.6h37.6c-3,12.5-13.7,20.3-27.9,20.3-22.2,0-36.9-15.8-36.9-39.3,0-20.3,14.8-35.5,34.6-35.5,12,0,22.1,5.9,27.7,16.5h36.3c-7.2-26-34.2-45-63.1-45-38.4,0-67.8,28.5-67.8,65.3,0,37.1,29.5,66.3,67.1,66.3,31.3,0,56.5-19.3,64.8-47.2a66.66,66.66,0,1,0-2.4-27.2m33.2,7.8a32.9,32.9,0,1,1,32.9,32.9,32.86,32.86,0,0,1-32.9-32.9"/></g></g></svg>